<?xml version="1.0" encoding="UTF-8"?> <svg xmlns="http://www.w3.org/2000/svg" xmlns:xlink="http://www.w3.org/1999/xlink" version="1.1" viewBox="0 0 1080 1080"><defs><style> .cls-1 { fill: url(#linear-gradient); } .cls-1, .cls-2, .cls-3, .cls-4, .cls-5, .cls-6, .cls-7, .cls-8, .cls-9, .cls-10, .cls-11, .cls-12, .cls-13, .cls-14, .cls-15, .cls-16, .cls-17, .cls-18, .cls-19, .cls-20, .cls-21, .cls-22, .cls-23, .cls-24, .cls-25, .cls-26, .cls-27, .cls-28, .cls-29, .cls-30, .cls-31, .cls-32, .cls-33, .cls-34, .cls-35 { stroke-width: 0px; } .cls-1, .cls-6, .cls-7, .cls-8, .cls-9, .cls-10, .cls-11, .cls-29, .cls-30, .cls-31, .cls-32, .cls-33 { mix-blend-mode: hard-light; } .cls-2 { fill: #c4d9d6; } .cls-3, .cls-36 { fill: none; } .cls-4 { fill: #2684ff; } .cls-5 { fill: #3c5df3; } .cls-6 { fill: url(#linear-gradient-13); } .cls-7 { fill: url(#linear-gradient-12); } .cls-8 { fill: url(#linear-gradient-15); } .cls-9 { fill: url(#linear-gradient-19); } .cls-10 { fill: url(#linear-gradient-17); } .cls-11 { fill: url(#linear-gradient-14); } .cls-12 { fill: url(#linear-gradient-11); } .cls-13 { fill: url(#linear-gradient-10); } .cls-14 { fill: url(#linear-gradient-18); } .cls-15 { fill: url(#linear-gradient-20); } .cls-37 { filter: url(#drop-shadow-9); } .cls-38 { filter: url(#drop-shadow-5); } .cls-39 { filter: url(#drop-shadow-7); } .cls-40 { filter: url(#drop-shadow-4); } .cls-41 { filter: url(#drop-shadow-6); } .cls-42 { filter: url(#drop-shadow-8); } .cls-43 { filter: url(#drop-shadow-2); } .cls-44 { filter: url(#drop-shadow-3); } .cls-16 { fill: #050038; } .cls-17 { fill: #82edfc; } .cls-18 { fill: url(#linear-gradient-16); } .cls-18, .cls-22 { fill-rule: evenodd; } .cls-19, .cls-35 { fill: #17235c; } .cls-20 { fill: #95bf47; } .cls-21 { fill: #ffd02f; } .cls-22, .cls-27 { fill: #0e102b; } .cls-23 { fill: url(#linear-gradient-2); } .cls-24 { fill: url(#linear-gradient-8); } .cls-25 { fill: url(#linear-gradient-7); } .cls-26 { fill: #f4f7fc; } .cls-45 { isolation: isolate; } .cls-28 { fill: #5e8e3e; } .cls-36 { stroke: #c4d9d6; stroke-miterlimit: 10; stroke-width: 3px; } .cls-29 { fill: url(#linear-gradient-3); } .cls-30 { fill: url(#linear-gradient-4); } .cls-31 { fill: url(#linear-gradient-6); } .cls-32 { fill: url(#linear-gradient-9); } .cls-33 { fill: url(#linear-gradient-5); } .cls-34 { fill: #fff; } .cls-46 { filter: url(#drop-shadow-12); } .cls-47 { filter: url(#drop-shadow-11); } .cls-48 { filter: url(#drop-shadow-10); } .cls-49 { filter: url(#drop-shadow-13); } .cls-50 { display: none; } .cls-35 { filter: url(#drop-shadow-1); } </style><filter id="drop-shadow-1" filterUnits="userSpaceOnUse"><feOffset dx="3.5" dy="3.5"></feOffset><feGaussianBlur result="blur" stdDeviation="35"></feGaussianBlur><feFlood flood-color="#3c64b1" flood-opacity=".4"></feFlood><feComposite in2="blur" operator="in"></feComposite><feComposite in="SourceGraphic"></feComposite></filter><filter id="drop-shadow-2" filterUnits="userSpaceOnUse"><feOffset dx="3.3" dy="3.3"></feOffset><feGaussianBlur result="blur-2" stdDeviation="9.3"></feGaussianBlur><feFlood flood-color="#3c5df3" flood-opacity=".4"></feFlood><feComposite in2="blur-2" operator="in"></feComposite><feComposite in="SourceGraphic"></feComposite></filter><linearGradient id="linear-gradient" x1="815.4" y1="602.7" x2="815.4" y2="477.3" gradientTransform="translate(-80.7 -194.7)" gradientUnits="userSpaceOnUse"><stop offset="0" stop-color="#c4d9d6"></stop><stop offset="1" stop-color="#fff"></stop></linearGradient><linearGradient id="linear-gradient-2" x1="221.4" y1="615" x2="221.4" y2="616.6" gradientTransform="translate(-10337.2 31135.5) scale(50 -50)" gradientUnits="userSpaceOnUse"><stop offset="0" stop-color="#0078d4"></stop><stop offset=".2" stop-color="#1380da"></stop><stop offset=".5" stop-color="#3c91e5"></stop><stop offset=".8" stop-color="#559cec"></stop><stop offset="1" stop-color="#5ea0ef"></stop></linearGradient><filter id="drop-shadow-3" filterUnits="userSpaceOnUse"><feOffset dx="3.3" dy="3.3"></feOffset><feGaussianBlur result="blur-3" stdDeviation="9.3"></feGaussianBlur><feFlood flood-color="#3c5df3" flood-opacity=".4"></feFlood><feComposite in2="blur-3" operator="in"></feComposite><feComposite in="SourceGraphic"></feComposite></filter><linearGradient id="linear-gradient-3" x1="264.6" y1="602.7" x2="264.6" y2="477.3" gradientTransform="translate(80.7 194.7)" xlink:href="#linear-gradient"></linearGradient><filter id="drop-shadow-4" filterUnits="userSpaceOnUse"><feOffset dx="3.3" dy="3.3"></feOffset><feGaussianBlur result="blur-4" stdDeviation="9.3"></feGaussianBlur><feFlood flood-color="#3c5df3" flood-opacity=".4"></feFlood><feComposite in2="blur-4" operator="in"></feComposite><feComposite in="SourceGraphic"></feComposite></filter><linearGradient id="linear-gradient-4" x1="540" y1="179.6" x2="540" y2="54.2" gradientTransform="matrix(1,0,0,1,0,0)" xlink:href="#linear-gradient"></linearGradient><filter id="drop-shadow-5" filterUnits="userSpaceOnUse"><feOffset dx="3.3" dy="3.3"></feOffset><feGaussianBlur result="blur-5" stdDeviation="9.3"></feGaussianBlur><feFlood flood-color="#3c5df3" flood-opacity=".4"></feFlood><feComposite in2="blur-5" operator="in"></feComposite><feComposite in="SourceGraphic"></feComposite></filter><linearGradient id="linear-gradient-5" x1="540" y1="1025.8" x2="540" y2="900.4" gradientTransform="matrix(1,0,0,1,0,0)" xlink:href="#linear-gradient"></linearGradient><filter id="drop-shadow-6" filterUnits="userSpaceOnUse"><feOffset dx="3.3" dy="3.3"></feOffset><feGaussianBlur result="blur-6" stdDeviation="9.3"></feGaussianBlur><feFlood flood-color="#3c5df3" flood-opacity=".4"></feFlood><feComposite in2="blur-6" operator="in"></feComposite><feComposite in="SourceGraphic"></feComposite></filter><linearGradient id="linear-gradient-6" x1="956.9" y1="602.7" x2="956.9" y2="477.3" gradientTransform="matrix(1,0,0,1,0,0)" xlink:href="#linear-gradient"></linearGradient><linearGradient id="linear-gradient-7" x1="954.6" y1="564.5" x2="936.7" y2="546.7" gradientTransform="translate(0 1078.8) scale(1 -1)" gradientUnits="userSpaceOnUse"><stop offset=".2" stop-color="#0052cc"></stop><stop offset="1" stop-color="#2684ff"></stop></linearGradient><linearGradient id="linear-gradient-8" x1="959.3" y1="513.2" x2="977.1" y2="531.1" xlink:href="#linear-gradient-7"></linearGradient><filter id="drop-shadow-7" filterUnits="userSpaceOnUse"><feOffset dx="3.3" dy="3.3"></feOffset><feGaussianBlur result="blur-7" stdDeviation="9.3"></feGaussianBlur><feFlood flood-color="#3c5df3" flood-opacity=".4"></feFlood><feComposite in2="blur-7" operator="in"></feComposite><feComposite in="SourceGraphic"></feComposite></filter><linearGradient id="linear-gradient-9" x1="123.1" y1="602.7" x2="123.1" y2="477.3" gradientTransform="matrix(1,0,0,1,0,0)" xlink:href="#linear-gradient"></linearGradient><linearGradient id="linear-gradient-10" x1="160.3" y1="1605.6" x2="108.6" y2="1575.9" gradientTransform="translate(0 -1020.9)" gradientUnits="userSpaceOnUse"><stop offset=".2" stop-color="#0052cc"></stop><stop offset="1" stop-color="#2684ff"></stop></linearGradient><linearGradient id="linear-gradient-11" x1="-512.4" y1="-2113.3" x2="-564" y2="-2143" gradientTransform="translate(-426.4 -1617.9) rotate(-180)" xlink:href="#linear-gradient-10"></linearGradient><filter id="drop-shadow-8" filterUnits="userSpaceOnUse"><feOffset dx="3.3" dy="3.3"></feOffset><feGaussianBlur result="blur-8" stdDeviation="9.3"></feGaussianBlur><feFlood flood-color="#3c5df3" flood-opacity=".4"></feFlood><feComposite in2="blur-8" operator="in"></feComposite><feComposite in="SourceGraphic"></feComposite></filter><linearGradient id="linear-gradient-12" x1="540" y1="881.4" x2="540" y2="755.9" gradientTransform="translate(197 -81.6)" xlink:href="#linear-gradient"></linearGradient><filter id="drop-shadow-9" filterUnits="userSpaceOnUse"><feOffset dx="3.3" dy="3.3"></feOffset><feGaussianBlur result="blur-9" stdDeviation="9.3"></feGaussianBlur><feFlood flood-color="#3c5df3" flood-opacity=".4"></feFlood><feComposite in2="blur-9" operator="in"></feComposite><feComposite in="SourceGraphic"></feComposite></filter><linearGradient id="linear-gradient-13" x1="540" y1="324.1" x2="540" y2="198.6" gradientTransform="translate(-197 81.6)" xlink:href="#linear-gradient"></linearGradient><filter id="drop-shadow-10" filterUnits="userSpaceOnUse"><feOffset dx="3.3" dy="3.3"></feOffset><feGaussianBlur result="blur-10" stdDeviation="9.3"></feGaussianBlur><feFlood flood-color="#3c5df3" flood-opacity=".4"></feFlood><feComposite in2="blur-10" operator="in"></feComposite><feComposite in="SourceGraphic"></feComposite></filter><linearGradient id="linear-gradient-14" x1="880.6" y1="941.7" x2="880.6" y2="816.3" gradientTransform="matrix(1,0,0,1,0,0)" xlink:href="#linear-gradient"></linearGradient><filter id="drop-shadow-11" filterUnits="userSpaceOnUse"><feOffset dx="3.3" dy="3.3"></feOffset><feGaussianBlur result="blur-11" stdDeviation="9.3"></feGaussianBlur><feFlood flood-color="#3c5df3" flood-opacity=".4"></feFlood><feComposite in2="blur-11" operator="in"></feComposite><feComposite in="SourceGraphic"></feComposite></filter><linearGradient id="linear-gradient-15" x1="880.6" y1="263.7" x2="880.6" y2="138.3" gradientTransform="matrix(1,0,0,1,0,0)" xlink:href="#linear-gradient"></linearGradient><linearGradient id="linear-gradient-16" x1="880.6" y1="838.2" x2="880.6" y2="917.4" gradientTransform="translate(0 1078.8) scale(1 -1)" gradientUnits="userSpaceOnUse"><stop offset="0" stop-color="#0052cc"></stop><stop offset="1" stop-color="#2684ff"></stop></linearGradient><filter id="drop-shadow-12" filterUnits="userSpaceOnUse"><feOffset dx="3.3" dy="3.3"></feOffset><feGaussianBlur result="blur-12" stdDeviation="9.3"></feGaussianBlur><feFlood flood-color="#3c5df3" flood-opacity=".4"></feFlood><feComposite in2="blur-12" operator="in"></feComposite><feComposite in="SourceGraphic"></feComposite></filter><linearGradient id="linear-gradient-17" x1="199.4" y1="263.7" x2="199.4" y2="138.3" gradientTransform="matrix(1,0,0,1,0,0)" xlink:href="#linear-gradient"></linearGradient><linearGradient id="linear-gradient-18" x1="240.7" y1="299.4" x2="201.7" y2="329.8" gradientTransform="translate(0 -103.5)" xlink:href="#linear-gradient-10"></linearGradient><filter id="drop-shadow-13" filterUnits="userSpaceOnUse"><feOffset dx="3.3" dy="3.3"></feOffset><feGaussianBlur result="blur-13" stdDeviation="9.3"></feGaussianBlur><feFlood flood-color="#3c5df3" flood-opacity=".4"></feFlood><feComposite in2="blur-13" operator="in"></feComposite><feComposite in="SourceGraphic"></feComposite></filter><linearGradient id="linear-gradient-19" x1="199.4" y1="941.7" x2="199.4" y2="816.3" gradientTransform="matrix(1,0,0,1,0,0)" xlink:href="#linear-gradient"></linearGradient><linearGradient id="linear-gradient-20" x1="871.8" y1="169.1" x2="881.9" y2="139.3" gradientTransform="translate(13.4 1037.2) rotate(.3) scale(1 -1)" gradientUnits="userSpaceOnUse"><stop offset="0" stop-color="#0052cc"></stop><stop offset="1" stop-color="#2684ff"></stop></linearGradient></defs><g class="cls-45"><g id="Background" class="cls-50"><rect class="cls-26" width="1080" height="1080"></rect></g><g id="Rings"><g><rect class="cls-36" x="254.9" y="255.4" width="569.3" height="569.3" rx="284.6" ry="284.6"></rect><rect class="cls-36" x="116.9" y="116.9" width="846.2" height="846.2" rx="423.1" ry="423.1"></rect><rect class="cls-35" x="400" y="400" width="280" height="280" rx="140" ry="140"></rect><g><path class="cls-34" d="M571.2,601.6s-31.8-36-40.8-58.1c-7.1-17.4-10.9-36.2-11.2-55.7-47.5,46.1-46.3,54.6,4.4,103,55.4,52.7,69.5,31.7,47.5,10.8Z"></path><path class="cls-34" d="M581.1,463.4c0-10-21.8-10.5-40.4,4.2-3.5,2.7-12.4,11.4-12.4,11.4-.1,2.3-.2,4.7-.2,7,0,15.5,2.4,30.4,7.1,44.5,8.2-19.6,20.3-37.1,35.6-51.8,7.7-7.4,10.4-10,10.4-15.2Z"></path></g></g></g><g id="Bubbles"><circle class="cls-5" cx="150.7" cy="369.6" r="20"></circle><circle class="cls-5" cx="929.3" cy="370.5" r="20"></circle><circle class="cls-5" cx="539.4" cy="824.6" r="20"></circle><circle class="cls-17" cx="538.9" cy="255.4" r="30"></circle><circle class="cls-19" cx="361.9" cy="145.6" r="35"></circle><circle class="cls-19" cx="718.1" cy="934.4" r="35"></circle><circle class="cls-2" cx="824.2" cy="540" r="15"></circle><circle class="cls-2" cx="720.7" cy="157.1" r="15"></circle><circle class="cls-2" cx="359.3" cy="922.9" r="15"></circle><circle class="cls-2" cx="254.9" cy="540" r="15"></circle><g><circle class="cls-17" cx="162.1" cy="729.8" r="30"></circle><circle class="cls-17" cx="917.9" cy="729.8" r="30"></circle></g></g><g id="Integrations"><g class="cls-43"><rect class="cls-1" x="672" y="282.5" width="125.5" height="125.5" rx="18.3" ry="18.3"></rect><path class="cls-23" d="M774.4,320.5v48.2s-19.8,16.2-19.8,16.2l-30.7-11.2v11.1s-17.4-22.7-17.4-22.7l50.7,4v-43.4s17.2-2.2,17.2-2.2ZM757.5,322.9l-28.4-17.3v11.3s-26.1,7.7-26.1,7.7l-7.8,10v22.8s11.2,4.9,11.2,4.9v-29.2s51.2-10.3,51.2-10.3h0Z"></path></g><g><g class="cls-44"><rect class="cls-29" x="282.5" y="672" width="125.5" height="125.5" rx="18.3" ry="18.3"></rect></g><g><path class="cls-20" d="M368.7,713c0-.4-.4-.6-.6-.6-.3,0-5.3,0-5.3,0,0,0-4.2-4.1-4.6-4.5-.4-.4-1.2-.3-1.5-.2,0,0-.8.2-2.1.7-.2-.7-.5-1.6-1-2.5-1.5-2.9-3.7-4.4-6.3-4.4h0c-.2,0-.4,0-.5,0,0,0-.2-.2-.2-.3-1.2-1.2-2.6-1.8-4.4-1.8-3.4,0-6.8,2.6-9.6,7-1.9,3.1-3.4,7-3.8,10-3.9,1.2-6.7,2.1-6.7,2.1-2,.6-2,.7-2.3,2.6-.2,1.4-5.4,41.5-5.4,41.5l43.5,7.5,18.8-4.7s-7.7-52-7.7-52.3ZM352.3,709c-1,.3-2.1.7-3.4,1,0-1.7-.2-4.1-1-6.2,2.6.5,3.9,3.4,4.4,5.2ZM346.7,710.7c-2.3.7-4.8,1.5-7.3,2.2.7-2.7,2-5.4,3.7-7.1.6-.7,1.5-1.4,2.5-1.8.9,2,1.2,4.8,1.1,6.7ZM342,701.7c.8,0,1.5.2,2.1.5-.9.5-1.8,1.2-2.7,2.1-2.2,2.3-3.8,6-4.5,9.4-2.1.6-4.1,1.3-6,1.8,1.2-5.5,5.8-13.7,11.1-13.9Z"></path><g><path class="cls-28" d="M368.1,712.4c-.3,0-5.3,0-5.3,0,0,0-4.2-4.1-4.6-4.5-.2-.2-.4-.2-.6-.3v62.5s18.8-4.7,18.8-4.7c0,0-7.7-52-7.7-52.3,0-.4-.4-.6-.6-.6Z"></path><path class="cls-34" d="M347.1,722.1l-2.2,8.2s-2.4-1.1-5.3-.9c-4.2.3-4.3,2.9-4.2,3.6.2,3.7,9.9,4.5,10.4,13,.4,6.7-3.6,11.4-9.4,11.7-6.9.4-10.7-3.7-10.7-3.7l1.5-6.2s3.8,2.9,6.9,2.7c2-.1,2.7-1.8,2.7-2.9-.3-4.8-8.1-4.5-8.6-12.3-.4-6.6,3.9-13.3,13.5-13.9,3.7-.2,5.6.7,5.6.7Z"></path></g></g></g><g class="cls-40"><rect class="cls-30" x="477.3" y="54.2" width="125.5" height="125.5" rx="18.3" ry="18.3"></rect><g><path class="cls-21" d="M517.5,77.2h44.9c9.5,0,17.2,7.7,17.2,17.2v44.9c0,9.5-7.7,17.2-17.2,17.2h-44.9c-9.5,0-17.2-7.7-17.2-17.2v-44.9c0-9.5,7.7-17.2,17.2-17.2h0Z"></path><path class="cls-16" d="M555.5,87.1h-8.7l7.3,12.7-16-12.7h-8.7l8,15.6-16.7-15.6h-8.7l8.7,19.8-8.7,39.7h8.7l16.7-42.5-8,42.5h8.7l16-45.3-7.3,45.3h8.7l16-49.6-16-9.9Z"></path></g></g><g class="cls-38"><rect class="cls-33" x="477.3" y="900.4" width="125.5" height="125.5" rx="18.3" ry="18.3"></rect><path class="cls-22" d="M540,919.9c-24.5,0-44.3,19.9-44.3,44.3s12.7,36.2,30.3,42.1c2.2.4,3-1,3-2.1s0-3.8,0-7.5c-12.3,2.7-14.9-5.9-14.9-5.9-2-5.1-4.9-6.5-4.9-6.5-4-2.8.3-2.7.3-2.7,4.4.3,6.8,4.6,6.8,4.6,4,6.8,10.4,4.8,12.9,3.7.4-2.9,1.5-4.8,2.8-5.9-9.8-1.1-20.2-4.9-20.2-21.9s1.7-8.8,4.6-11.9c-.5-1.1-2-5.6.4-11.7,0,0,3.7-1.2,12.2,4.5,3.5-1,7.3-1.5,11.1-1.5,3.8,0,7.6.5,11.1,1.5,8.5-5.7,12.2-4.5,12.2-4.5,2.4,6.1.9,10.6.4,11.7,2.8,3.1,4.6,7.1,4.6,11.9,0,17-10.4,20.8-20.2,21.9,1.6,1.4,3,4.1,3,8.2,0,5.9,0,10.7,0,12.2s.8,2.6,3,2.1c17.6-5.9,30.3-22.5,30.3-42.1s-19.9-44.3-44.3-44.3Z"></path></g><g class="cls-41"><rect class="cls-31" x="894.2" y="477.3" width="125.5" height="125.5" rx="18.3" ry="18.3"></rect><g><path class="cls-4" d="M997.7,537.6l-37.3-37.3-3.6-3.6-28,28-12.8,12.8c-1.3,1.3-1.3,3.5,0,4.9l25.6,25.6,15.2,15.3,28-28,.5-.5,12.4-12.4c1.3-1.3,1.3-3.5,0-4.8ZM956.8,552.8l-12.8-12.8,12.8-12.8,12.8,12.8-12.8,12.8Z"></path><path class="cls-25" d="M956.8,527.2c-8.4-8.4-8.4-22-.1-30.3l-28,28,15.2,15.2,12.9-12.8Z"></path><path class="cls-24" d="M969.6,540l-12.8,12.8c8.4,8.4,8.4,22,0,30.5l28.1-28.1-15.3-15.2Z"></path></g></g><g class="cls-39"><rect class="cls-32" x="60.4" y="477.3" width="125.5" height="125.5" rx="18.3" ry="18.3"></rect><g id="Layer_2" data-name="Layer 2"><g id="Blue"><path class="cls-13" d="M84.8,560.9c-.9,1.4-1.8,3-2.6,4.3-.7,1.2-.3,2.8.9,3.6l17.1,10.5c1.2.8,2.9.4,3.6-.9,0,0,0,0,0,0,.7-1.1,1.6-2.6,2.5-4.2,6.8-11.2,13.6-9.8,25.8-3.9l16.9,8c1.3.6,2.9,0,3.5-1.2,0,0,0,0,0,0l8.1-18.4c.6-1.3,0-2.8-1.3-3.4-3.6-1.7-10.7-5-17.1-8.1-23-11.2-42.5-10.5-57.5,13.9Z"></path><path class="cls-12" d="M161.4,519.2c.9-1.4,1.8-3,2.6-4.3.7-1.2.3-2.8-.9-3.6l-17.1-10.5c-1.2-.8-2.8-.5-3.6.7,0,0,0,0,0,.2-.7,1.1-1.6,2.6-2.5,4.2-6.8,11.2-13.6,9.8-25.8,3.9l-16.9-8c-1.3-.6-2.9,0-3.5,1.3,0,0,0,0,0,0l-8.1,18.4c-.6,1.3,0,2.8,1.3,3.4,3.6,1.7,10.7,5,17.1,8.1,23.1,11.2,42.6,10.4,57.6-13.9Z"></path></g></g></g><g><g class="cls-42"><rect class="cls-7" x="674.3" y="674.3" width="125.5" height="125.5" rx="18.3" ry="18.3"></rect></g><g><path class="cls-27" d="M753.8,735.1c.5,0,1,0,1.5,0,.3-.6.3-1.6,0-2.8-.4-1.7-.8-2.7-1.8-2.5-1,.2-1,1.4-.7,3.1.2.9.5,1.8.9,2.3Z"></path><path class="cls-27" d="M745.4,736.4c.7.3,1.1.5,1.3.3.1-.1,0-.3,0-.6-.3-.6-1.1-1.1-1.8-1.5-1.5-.7-3.4-.4-4.8.6-.5.3-.9.8-.9,1.1,0,0,0,.2.3.2.4,0,1.7-.6,3.3-.7,1.1,0,2,.3,2.7.6Z"></path><path class="cls-27" d="M744,737.2c-.9.1-1.4.4-1.7.7-.3.2-.4.5-.4.7,0,0,0,.1,0,.2,0,0,0,0,.2,0,.2,0,.7-.2.7-.2,1.3-.5,2.1-.4,2.9-.3.5,0,.7,0,.8,0,0,0,0-.1,0-.3-.2-.3-1.1-.9-2.4-.8Z"></path><path class="cls-27" d="M751,740.2c.6.3,1.3.2,1.5-.3s-.1-1.1-.7-1.4c-.6-.3-1.3-.2-1.5.3-.2.5.1,1.1.7,1.4Z"></path><path class="cls-27" d="M755,736.7c-.5,0-.9.5-.9,1.2,0,.7.4,1.3.9,1.3s.9-.5.9-1.2c0-.7-.4-1.3-.9-1.3Z"></path><path class="cls-27" d="M720.5,749.1c-.1,0-.3,0-.5,0-.4,0-.7-.2-.9-.4-.2-.4-.2-.9,0-1.5,0,0,0-.2.1-.3.4-.9,1.1-2.4.3-3.9-.6-1.1-1.5-1.8-2.6-1.9-1.1-.1-2.2.3-2.9,1-1.1,1.2-1.3,2.9-1.1,3.5,0,.2.2.3.3.3.2,0,.5-.1.6-.6,0,0,0,0,0-.2,0-.3.2-.7.5-1.1.3-.5.7-.8,1.3-.9.5-.1,1.1,0,1.5.3.8.5,1.1,1.5.7,2.4-.2.5-.5,1.4-.4,2.1.1,1.5,1.1,2.1,1.9,2.2.8,0,1.4-.4,1.5-.8,0-.2,0-.3,0-.4-.1-.2-.3-.1-.5,0Z"></path><path class="cls-27" d="M767.7,746.4c0-.1-.2-.8-.5-1.7-.3-.9-.6-1.5-.6-1.5,1.1-1.7,1.1-3.1,1-4-.2-1-.6-1.9-1.5-2.8-.9-.9-2.7-1.9-5.2-2.6-.3,0-1.2-.3-1.3-.4,0,0,0-3.1-.1-4.4,0-.9-.1-2.4-.6-3.9-.5-2-1.5-3.7-2.7-4.8,3.3-3.4,5.3-7.1,5.3-10.3,0-6.2-7.6-8-16.9-4.2,0,0-2,.8-2,.8,0,0-3.6-3.5-3.6-3.6-10.6-9.3-43.9,27.7-33.3,36.7l2.3,2c-.6,1.6-.8,3.4-.6,5.3.2,2.5,1.5,4.8,3.6,6.7,2,1.7,4.5,2.8,7,2.8,4.1,9.5,13.6,15.4,24.7,15.7,11.9.4,21.9-5.2,26.1-15.3.3-.7,1.4-3.9,1.4-6.7s-1.6-4-2.6-4ZM719,753.9c-.4,0-.7,0-1.1,0-3.6,0-7.5-3.3-7.9-7.2-.4-4.2,1.7-7.5,5.6-8.3.5,0,1-.1,1.6-.1,2.1.1,5.3,1.8,6,6.4.6,4.1-.4,8.4-4.3,9ZM715,736c-2.4.5-4.5,1.8-5.8,3.7-.8-.6-2.2-1.9-2.5-2.4-2.1-3.9,2.2-11.5,5.2-15.8,7.4-10.6,19-18.6,24.4-17.1.9.2,3.8,3.6,3.8,3.6,0,0-5.4,3-10.4,7.1-6.7,5.2-11.8,12.7-14.8,20.8ZM728.7,721.5c2.6-3,5.9-5.7,8.8-7.2.1,0,.2,0,.2.2-.2.4-.7,1.3-.8,2,0,.1,0,.2.2.1,1.8-1.2,5-2.6,7.7-2.7.1,0,.2.1,0,.2-.4.3-.9.8-1.2,1.2,0,0,0,.2,0,.2,1.9,0,4.7.7,6.5,1.7.1,0,0,.3-.1.3-2.7-.6-7.1-1.1-11.7,0-4.1,1-7.2,2.5-9.5,4.2-.1,0-.3,0-.2-.2ZM767.8,751.3c-.5,3.1-1.8,5.7-4.1,8-1.4,1.5-3,2.7-4.9,3.7-1,.5-2.1,1-3.2,1.4-8.4,2.8-17.1-.3-19.8-6.8-.2-.5-.4-1-.6-1.5-1.2-4.3-.2-9.4,3-12.7,0,0,0,0,0,0,.2-.2.4-.4.4-.8s-.2-.5-.3-.7c-1.1-1.6-4.9-4.3-4.1-9.6.5-3.8,3.9-6.4,6.9-6.3.3,0,.5,0,.8,0,1.3,0,2.5.3,3.6.3,1.8,0,3.5-.2,5.5-1.8.7-.6,1.2-1,2.1-1.2,0,0,.3-.1.8,0,.5,0,.9.2,1.3.4,1.6,1,1.8,3.6,1.9,5.4,0,1.1.2,3.6.2,4.4,0,1.7.5,1.9,1.4,2.2.5.2,1,.3,1.7.5,2.1.6,3.3,1.2,4.1,1.9.5.5.7,1,.7,1.5.2,1.8-1.4,4-5.7,6-4.7,2.2-10.5,2.8-14.4,2.3-.3,0-1.4-.2-1.4-.2-3.2-.4-5,3.7-3.1,6.5,1.2,1.8,4.6,3,7.9,3,7.7,0,13.6-3.3,15.7-6.1,0,0,0,0,.2-.2.1-.2,0-.3-.1-.2-1.8,1.2-9.7,6.1-18.2,4.6,0,0-1-.2-2-.5-.7-.3-2.3-1-2.5-2.6,6.9,2.1,11.2.1,11.2.1,0,0,.1-.1.1-.2,0-.1-.1-.2-.2-.2,0,0-5.6.8-10.9-1.1.6-1.9,2.1-1.2,4.4-1,4.2.2,8-.4,10.7-1.2,2.4-.7,5.6-2.1,8-4,.8,1.8,1.1,3.8,1.1,3.8,0,0,.6-.1,1.2.2.5.3.9,1,.6,2.6ZM741.9,751.1s0,0,0,0c0,0,0,0,0,0,0,0,0,0,0,0Z"></path></g></g><g><g class="cls-37"><rect class="cls-6" x="280.2" y="280.2" width="125.5" height="125.5" rx="18.3" ry="18.3"></rect></g><polygon class="cls-27" points="382.6 369.6 303.3 369.6 303.3 316.3 382.6 316.3 366 343 382.6 369.6"></polygon></g><g class="cls-48"><rect class="cls-11" x="817.9" y="816.3" width="125.5" height="125.5" rx="18.3" ry="18.3"></rect></g><g><g class="cls-47"><rect class="cls-8" x="817.9" y="138.3" width="125.5" height="125.5" rx="18.3" ry="18.3"></rect></g><path class="cls-18" d="M910.8,161.4h-60.4c-2.5,0-4.9,1-6.7,2.8-1.8,1.8-2.8,4.2-2.8,6.7v60.4c0,2.5,1,4.9,2.8,6.7,1.8,1.8,4.2,2.8,6.7,2.8h60.4c2.5,0,4.9-1,6.7-2.8,1.8-1.8,2.8-4.2,2.8-6.7v-60.4c0-2.5-1-4.9-2.8-6.7-1.8-1.8-4.2-2.8-6.7-2.8ZM875.1,218.5c0,.8-.3,1.6-.9,2.2-.6.6-1.4.9-2.2.9h-13.2c-.8,0-1.6-.3-2.2-.9-.6-.6-.9-1.4-.9-2.2v-39.3c0-.8.3-1.6.9-2.2.6-.6,1.4-.9,2.2-.9h13.2c.8,0,1.6.3,2.2.9.6.6.9,1.4.9,2.2v39.3ZM905.6,200.4c0,.4,0,.8-.2,1.2s-.4.7-.7,1c-.3.3-.6.5-1,.7-.4.2-.8.2-1.2.2h-13.2c-.4,0-.8,0-1.2-.2-.4-.2-.7-.4-1-.7-.3-.3-.5-.6-.7-1s-.2-.8-.2-1.2v-21.3c0-.8.3-1.6.9-2.2.6-.6,1.4-.9,2.2-.9h13.2c.8,0,1.6.3,2.2.9.6.6.9,1.4.9,2.2v21.3Z"></path></g><g><g class="cls-46"><path class="cls-10" d="M243.8,263.7h-88.9c-10.1,0-18.3-8.2-18.3-18.3v-88.9c0-10.1,8.2-18.3,18.3-18.3h88.9c10.1,0,18.3,8.2,18.3,18.3v88.9c0,10.1-8.2,18.3-18.3,18.3Z"></path><g id="Layer_2-2" data-name="Layer 2"><g id="Blue-2" data-name="Blue"><polygon class="cls-3" points="191.2 212.6 207.7 212.6 211.5 189.4 186.9 189.4 191.2 212.6"></polygon><path class="cls-4" d="M162.7,165.7c-1.4,0-2.5,1.1-2.5,2.5v.4l10.7,64.7c.3,1.6,1.6,2.9,3.4,2.9h51.2c1.3,0,2.3-.9,2.5-2.1l10.7-65.5c.3-1.4-.8-2.6-2.1-2.9h-73.8ZM207.7,212.6h-16.3l-4.4-23.1h24.8l-4,23.1Z"></path><path class="cls-14" d="M235.2,189.4h-23.6l-4,23.1h-16.3l-19.2,22.9c.6.5,1.4.9,2.3.9h51.2c1.3,0,2.3-.9,2.5-2.1l7.3-44.7Z"></path></g></g></g><g><g class="cls-49"><rect class="cls-9" x="136.6" y="816.3" width="125.5" height="125.5" rx="18.3" ry="18.3"></rect></g><g><path class="cls-27" d="M201.5,884.5h10c2.8,0,4.6-1.6,4.6-4.1s-1.8-4.1-4.6-4.1h-10c-.3,0-.6.3-.6.6v7c0,.3.3.6.6.6Z"></path><path class="cls-27" d="M201.5,900.7h10.3c3.2,0,5.1-1.6,5.1-4.5s-1.8-4.5-5.1-4.5h-10.3c-.3,0-.6.3-.6.6v7.7c0,.4.3.6.6.6Z"></path><path class="cls-27" d="M238.1,839.6l-29.6,29.5h4.8c7.5,0,12,4.7,12,9.9s-2.7,7.1-5.7,8.4c-.5.2-.5.9,0,1,3.4,1.3,5.8,4.9,5.8,9.1s-3.9,10.6-11.6,10.6h-21c-.3,0-.6-.3-.6-.6v-22.3l-32.5,32.3c-.4.4-.1,1.2.5,1.2h78.1c.3,0,.5-.2.5-.5v-78.1c.1-.5-.5-.8-.9-.4Z"></path></g></g></g><g><path class="cls-15" d="M887.2,869.9h23.5c2,.2,3.7,1.8,3.7,3.8,0,.8-.3,1.6-.7,2.2l-34.7,46.3c-10.9-8.2-13.1-23.6-5-34.5l13.3-17.8Z"></path><path class="cls-4" d="M873.9,887.7h-23.4c-2-.2-3.7-1.8-3.6-3.8,0-.8.3-1.5.7-2.2l34.4-45.9c10.9,8.2,13.1,23.6,5,34.5l-13.1,17.4Z"></path></g></g></g></svg> 